<?xml version="1.0" encoding="UTF-8" standalone="no"?>
<!DOCTYPE svg PUBLIC "-//W3C//DTD SVG 1.1//EN"
 "http://www.w3.org/Graphics/SVG/1.1/DTD/svg11.dtd">
<!-- Generated by graphviz version 2.49.3 (0)
 -->
<!-- Title: G Pages: 1 -->
<svg width="256pt" height="523pt"
 viewBox="0.00 0.00 255.59 522.74" xmlns="http://www.w3.org/2000/svg" xmlns:xlink="http://www.w3.org/1999/xlink">
<g id="graph0" class="graph" transform="scale(1 1) rotate(0) translate(4 518.74)">
<title>G</title><style>.edge>path:hover{stroke-width:8}</style>
<polygon fill="white" stroke="transparent" points="-4,4 -4,-518.74 251.59,-518.74 251.59,4 -4,4"/>
<!-- userfs___main__ -->
<g id="node1" class="node">
<title>userfs___main__</title><style>.edge>path:hover{stroke-width:8}</style>
<ellipse fill="#ac4949" stroke="black" cx="82.89" cy="-22.63" rx="42.21" ry="22.76"/>
<text text-anchor="middle" x="82.89" y="-25.63" font-family="Helvetica,sans-Serif" font-size="10.00" fill="#ffffff">userfs.</text>
<text text-anchor="middle" x="82.89" y="-13.63" font-family="Helvetica,sans-Serif" font-size="10.00" fill="#ffffff">__main__</text>
</g>
<!-- userfs_app -->
<g id="node2" class="node">
<title>userfs_app</title><style>.edge>path:hover{stroke-width:8}</style>
<ellipse fill="#a13535" stroke="black" cx="82.89" cy="-171.25" rx="37.89" ry="18"/>
<text text-anchor="middle" x="82.89" y="-168.25" font-family="Helvetica,sans-Serif" font-size="10.00" fill="#ffffff">userfs.app</text>
</g>
<!-- userfs_entry -->
<g id="node5" class="node">
<title>userfs_entry</title><style>.edge>path:hover{stroke-width:8}</style>
<ellipse fill="#b83d3d" stroke="black" cx="82.89" cy="-99.25" rx="41.06" ry="18"/>
<text text-anchor="middle" x="82.89" y="-96.25" font-family="Helvetica,sans-Serif" font-size="10.00" fill="#ffffff">userfs.entry</text>
</g>
<!-- userfs_app&#45;&gt;userfs_entry -->
<g id="edge1" class="edge">
<title>userfs_app&#45;&gt;userfs_entry</title><style>.edge>path:hover{stroke-width:8}</style>
<path fill="none" stroke="black" d="M82.89,-152.95C82.89,-145.24 82.89,-135.97 82.89,-127.37"/>
<polygon fill="#a13535" stroke="black" points="86.39,-127.36 82.89,-117.36 79.39,-127.36 86.39,-127.36"/>
</g>
<!-- userfs_commands -->
<g id="node3" class="node">
<title>userfs_commands</title><style>.edge>path:hover{stroke-width:8}</style>
<ellipse fill="#c24747" stroke="black" cx="45.89" cy="-247.88" rx="45.77" ry="22.76"/>
<text text-anchor="middle" x="45.89" y="-250.88" font-family="Helvetica,sans-Serif" font-size="10.00" fill="#ffffff">userfs.</text>
<text text-anchor="middle" x="45.89" y="-238.88" font-family="Helvetica,sans-Serif" font-size="10.00" fill="#ffffff">commands</text>
</g>
<!-- userfs_commands&#45;&gt;userfs_app -->
<g id="edge2" class="edge">
<title>userfs_commands&#45;&gt;userfs_app</title><style>.edge>path:hover{stroke-width:8}</style>
<path fill="none" stroke="black" d="M56.39,-225.7C60.6,-217.22 65.48,-207.36 69.91,-198.44"/>
<polygon fill="#c24747" stroke="black" points="73.16,-199.74 74.47,-189.23 66.89,-196.63 73.16,-199.74"/>
</g>
<!-- userfs_commands_all -->
<g id="node4" class="node">
<title>userfs_commands_all</title><style>.edge>path:hover{stroke-width:8}</style>
<ellipse fill="#b83d3d" stroke="black" cx="119.89" cy="-337.62" rx="47.7" ry="31.23"/>
<text text-anchor="middle" x="119.89" y="-346.62" font-family="Helvetica,sans-Serif" font-size="10.00" fill="#ffffff">userfs.</text>
<text text-anchor="middle" x="119.89" y="-334.62" font-family="Helvetica,sans-Serif" font-size="10.00" fill="#ffffff">commands.</text>
<text text-anchor="middle" x="119.89" y="-322.62" font-family="Helvetica,sans-Serif" font-size="10.00" fill="#ffffff">all</text>
</g>
<!-- userfs_commands_all&#45;&gt;userfs_app -->
<g id="edge3" class="edge">
<title>userfs_commands_all&#45;&gt;userfs_app</title><style>.edge>path:hover{stroke-width:8}</style>
<path fill="none" stroke="black" d="M123.2,-306.2C124.23,-289.14 124.17,-267.59 119.89,-248.88"/>
</g>
<!-- userfs_entry&#45;&gt;userfs___main__ -->
<g id="edge4" class="edge">
<title>userfs_entry&#45;&gt;userfs___main__</title><style>.edge>path:hover{stroke-width:8}</style>
<path fill="none" stroke="black" d="M82.89,-80.95C82.89,-73.42 82.89,-64.34 82.89,-55.66"/>
<polygon fill="#b83d3d" stroke="black" points="86.39,-55.39 82.89,-45.39 79.39,-55.39 86.39,-55.39"/>
</g>
<!-- vcorelib -->
<g id="node6" class="node">
<title>vcorelib</title><style>.edge>path:hover{stroke-width:8}</style>
<ellipse fill="#47c2c2" stroke="black" cx="111.89" cy="-496.74" rx="30.17" ry="18"/>
<text text-anchor="middle" x="111.89" y="-493.74" font-family="Helvetica,sans-Serif" font-size="10.00" fill="#000000">vcorelib</text>
</g>
<!-- vcorelib&#45;&gt;userfs_app -->
<g id="edge5" class="edge">
<title>vcorelib&#45;&gt;userfs_app</title><style>.edge>path:hover{stroke-width:8}</style>
<path fill="none" stroke="black" d="M116.77,-478.86C121.29,-460.56 126.4,-430.62 119.89,-405.74"/>
<path fill="none" stroke="black" d="M119.89,-404.74C111.52,-375.96 77.35,-394.98 62.89,-368.74 49.54,-344.51 51.96,-331.91 62.89,-306.51 77.12,-273.42 127.92,-284 119.89,-248.88"/>
<path fill="none" stroke="black" d="M119.89,-246.88C115.42,-229.59 106.65,-211.61 98.77,-197.64"/>
<polygon fill="#47c2c2" stroke="black" points="101.59,-195.53 93.52,-188.66 95.55,-199.06 101.59,-195.53"/>
</g>
<!-- vcorelib&#45;&gt;userfs_commands_all -->
<g id="edge6" class="edge">
<title>vcorelib&#45;&gt;userfs_commands_all</title><style>.edge>path:hover{stroke-width:8}</style>
<path fill="none" stroke="black" d="M119.89,-404.74C117.76,-396.6 116.85,-387.72 116.63,-379.17"/>
<polygon fill="#47c2c2" stroke="black" points="120.13,-379 116.68,-368.98 113.13,-378.97 120.13,-379"/>
</g>
<!-- vcorelib_args -->
<g id="node7" class="node">
<title>vcorelib_args</title><style>.edge>path:hover{stroke-width:8}</style>
<ellipse fill="#47c2c2" stroke="black" cx="203.89" cy="-496.74" rx="43.9" ry="18"/>
<text text-anchor="middle" x="203.89" y="-493.74" font-family="Helvetica,sans-Serif" font-size="10.00" fill="#000000">vcorelib.args</text>
</g>
<!-- vcorelib_args&#45;&gt;userfs_app -->
<g id="edge7" class="edge">
<title>vcorelib_args&#45;&gt;userfs_app</title><style>.edge>path:hover{stroke-width:8}</style>
<path fill="none" stroke="black" d="M195.89,-404.74C181.21,-362.76 197.64,-345.84 176.89,-306.51 160.08,-274.65 128.9,-283.76 119.89,-248.88"/>
</g>
<!-- vcorelib_args&#45;&gt;userfs_commands_all -->
<g id="edge8" class="edge">
<title>vcorelib_args&#45;&gt;userfs_commands_all</title><style>.edge>path:hover{stroke-width:8}</style>
<path fill="none" stroke="black" d="M204.05,-478.53C203.83,-460.19 202.36,-430.47 195.89,-405.74"/>
<path fill="none" stroke="black" d="M195.89,-404.74C190.2,-388.47 177.63,-374.93 164.32,-364.42"/>
<polygon fill="#47c2c2" stroke="black" points="166.11,-361.4 155.99,-358.28 161.96,-367.03 166.11,-361.4"/>
</g>
</g>
</svg>
